<?xml version="1.0" encoding="utf-8"?>
<!-- Generator: Adobe Illustrator 28.3.0, SVG Export Plug-In . SVG Version: 6.00 Build 0)  -->
<svg version="1.1" id="Слой_1" xmlns="http://www.w3.org/2000/svg" xmlns:xlink="http://www.w3.org/1999/xlink" x="0px" y="0px"
	 viewBox="0 0 1921 1081" style="enable-background:new 0 0 1921 1081;" xml:space="preserve">
<style type="text/css">
	.st0{fill:#FFFFFF;stroke:#161615;stroke-miterlimit:10;}
	.st1{fill:none;}
	.st2{font-family:'MuseoSansVkusVill-100Italic';font-style:italic;}
	.st3{font-size:32px;}
	
		.st4{fill:none;stroke:url(#SVGID_00000147917818170471009470000008278337805677430706_);stroke-width:2.3062;stroke-miterlimit:10;}
	
		.st5{fill:none;stroke:url(#SVGID_00000078022980790275098300000002714862551772562347_);stroke-width:2.3062;stroke-miterlimit:10;}
	
		.st6{fill:none;stroke:url(#SVGID_00000153690401485067495980000006256851700921887658_);stroke-width:3.5067;stroke-miterlimit:10;}
	.st7{fill:url(#SVGID_00000118396442373618680160000003557543888747193510_);}
	.st8{fill:url(#SVGID_00000118355606897414713260000006749258002368913077_);}
	.st9{fill:none;stroke:#FFB823;stroke-miterlimit:10;}
	.st10{font-family:'MuseoSansVkusVill-900';}
	.st11{font-size:74px;}
	.st12{font-size:33px;}
	.st13{fill:#FFFFFF;}
	.st14{font-size:84px;}
	.st15{fill:#FFB823;}
	.st16{fill:none;stroke:#FFB823;stroke-width:0.8872;stroke-miterlimit:10;}
	
		.st17{fill:none;stroke:url(#SVGID_00000160895855261866914120000010801310246471064239_);stroke-width:2.3062;stroke-miterlimit:10;}
	
		.st18{fill:none;stroke:url(#SVGID_00000103257104700044830590000012549534385003925685_);stroke-width:2.3062;stroke-miterlimit:10;}
	
		.st19{fill:none;stroke:url(#SVGID_00000091007340037054698570000001892509581519108258_);stroke-width:3.5067;stroke-miterlimit:10;}
	.st20{fill:url(#SVGID_00000014598314535980699470000004787936533515745957_);}
	.st21{fill:url(#SVGID_00000106149528553648117990000004545800432674905756_);}
</style>
<rect x="0.5" y="0.5" class="st0" width="1920" height="1080"/>
<g>
	<rect x="56.1" y="254.5" class="st1" width="666.8" height="338.7"/>
	<text transform="matrix(1 0 0 1 56.0803 281.6684)"><tspan x="0" y="0" class="st2 st3">Это решение подойдёт не только </tspan><tspan x="0" y="38.4" class="st2 st3">геймерам, но и дизайнерам, стримерам,  </tspan><tspan x="0" y="76.8" class="st2 st3">3D-моделлерам и видеомонтажёрам.</tspan></text>
</g>
<g>
	<rect x="1483.5" y="902.6" class="st1" width="666.8" height="338.7"/>
	<text transform="matrix(1 0 0 1 1483.4734 929.8281)"><tspan x="0" y="0" class="st2 st3">Гарантия до 12 месяцев</tspan><tspan x="0" y="54" class="st2 st3">Доставка или самовывоз</tspan></text>
</g>
<g>
	<g>
		<defs>
			<path id="SVGID_1_" d="M803.8,1018.6h-316c-9.8,0-17.8-8-17.8-17.8V785.5c0-9.8,8-17.8,17.8-17.8h316c9.8,0,17.8,8,17.8,17.8
				v215.3C821.6,1010.6,813.7,1018.6,803.8,1018.6z"/>
		</defs>
		<clipPath id="SVGID_00000100346878095937121770000010755806792326884283_">
			<use xlink:href="#SVGID_1_"  style="overflow:visible;"/>
		</clipPath>
		<g style="clip-path:url(#SVGID_00000100346878095937121770000010755806792326884283_);">
			
				<image style="overflow:visible;" width="3378" height="2361" xlink:href="IMG_2589.JPG"  transform="matrix(0.1131 0 0 0.1131 454.9077 754.3711)">
			</image>
		</g>
	</g>
	
		<linearGradient id="SVGID_00000100356071657017089060000007696609913348114583_" gradientUnits="userSpaceOnUse" x1="459.7094" y1="893.1406" x2="831.999" y2="893.1406">
		<stop  offset="0" style="stop-color:#DC5A24"/>
		<stop  offset="1" style="stop-color:#FFB823"/>
	</linearGradient>
	
		<path style="fill:none;stroke:url(#SVGID_00000100356071657017089060000007696609913348114583_);stroke-width:2.3062;stroke-miterlimit:10;" d="
		M487.9,1027.8c-14.9,0-27-12.1-27-27V785.5c0-14.9,12.1-27,27-27h316c14.9,0,27,12.1,27,27v215.3c0,14.9-12.1,27-27,27H487.9z"/>
</g>
<g>
	<g>
		<defs>
			<path id="SVGID_00000014621204955464731120000016907991434303001248_" d="M402.9,1018.6h-316c-9.8,0-17.8-8-17.8-17.8V785.5
				c0-9.8,8-17.8,17.8-17.8h316c9.8,0,17.8,8,17.8,17.8v215.3C420.7,1010.6,412.7,1018.6,402.9,1018.6z"/>
		</defs>
		<clipPath id="SVGID_00000078734047010999757220000002747611946386243720_">
			<use xlink:href="#SVGID_00000014621204955464731120000016907991434303001248_"  style="overflow:visible;"/>
		</clipPath>
		<g style="clip-path:url(#SVGID_00000078734047010999757220000002747611946386243720_);">
			
				<image style="overflow:visible;" width="1536" height="1024" xlink:href="../../ChatGPT Image 27 февр. 2026 г., 13_59_03.png"  transform="matrix(0.2491 0 0 0.2491 53.5912 765.6097)">
			</image>
		</g>
	</g>
	
		<linearGradient id="SVGID_00000101818766654444173370000005070231440830963387_" gradientUnits="userSpaceOnUse" x1="58.7426" y1="893.1406" x2="431.0322" y2="893.1406">
		<stop  offset="0" style="stop-color:#DC5A24"/>
		<stop  offset="1" style="stop-color:#FFB823"/>
	</linearGradient>
	
		<path style="fill:none;stroke:url(#SVGID_00000101818766654444173370000005070231440830963387_);stroke-width:2.3062;stroke-miterlimit:10;" d="
		M86.9,1027.8c-14.9,0-27-12.1-27-27V785.5c0-14.9,12.1-27,27-27h316c14.9,0,27,12.1,27,27v215.3c0,14.9-12.1,27-27,27H86.9z"/>
</g>
<g>
	<g>
		<defs>
			<path id="SVGID_00000077293939952924982730000011044391461109821569_" d="M1766.7,707.9H991.2c-24.1,0-43.7-19.5-43.7-43.7V135.9
				c0-24.1,19.5-43.7,43.7-43.7h775.6c24.1,0,43.7,19.5,43.7,43.7v528.4C1810.4,688.4,1790.9,707.9,1766.7,707.9z"/>
		</defs>
		<clipPath id="SVGID_00000072282271420696194480000011927087446614825877_">
			<use xlink:href="#SVGID_00000077293939952924982730000011044391461109821569_"  style="overflow:visible;"/>
		</clipPath>
		<g transform="matrix(1 0 0 1 0 0)" style="clip-path:url(#SVGID_00000072282271420696194480000011927087446614825877_);">
			
				<image style="overflow:visible;" width="3732" height="2715" xlink:href="IMG_2587.JPG"  transform="matrix(0.2375 0 0 0.2375 936.6014 67.2803)">
			</image>
		</g>
	</g>
	
		<linearGradient id="SVGID_00000008835990015250298290000006177228567205149587_" gradientUnits="userSpaceOnUse" x1="931.7278" y1="400.0891" x2="1826.1758" y2="400.0891">
		<stop  offset="0" style="stop-color:#DC5A24"/>
		<stop  offset="1" style="stop-color:#FFB823"/>
	</linearGradient>
	
		<path style="fill:none;stroke:url(#SVGID_00000008835990015250298290000006177228567205149587_);stroke-width:3.5067;stroke-miterlimit:10;" d="
		M991.2,722c-31.8,0-57.7-25.9-57.7-57.7V135.9c0-31.8,25.9-57.7,57.7-57.7h775.6c31.8,0,57.7,25.9,57.7,57.7v528.4
		c0,31.8-25.9,57.7-57.7,57.7H991.2z"/>
</g>
<linearGradient id="SVGID_00000162322642350144835180000008580801171968517295_" gradientUnits="userSpaceOnUse" x1="55.7059" y1="177.4576" x2="566.3318" y2="177.4576">
	<stop  offset="0" style="stop-color:#DC5A24"/>
	<stop  offset="1" style="stop-color:#FFCA33"/>
</linearGradient>
<path style="fill:url(#SVGID_00000162322642350144835180000008580801171968517295_);" d="M519.3,210.5H55.7v-66.1h510.6v19.1
	C566.3,189.5,545.3,210.5,519.3,210.5z"/>
<image style="overflow:visible;" width="2480" height="1748" xlink:href="C:\Users\user\Downloads\Дополнительный.png"  transform="matrix(0.193 0 0 0.193 847.4407 726.5693)">
</image>
<linearGradient id="SVGID_00000163052770352761087520000007160945398452126623_" gradientUnits="userSpaceOnUse" x1="1920.5" y1="820.9156" x2="1373.901" y2="820.9156">
	<stop  offset="0" style="stop-color:#DC5A24"/>
	<stop  offset="1" style="stop-color:#FFCA33"/>
</linearGradient>
<path style="fill:url(#SVGID_00000163052770352761087520000007160945398452126623_);" d="M1373.9,883.3h546.6V758.5l-506.9,3.8
	c-12,0.1-22.2,8.9-24.1,20.8C1384.4,816.5,1379.1,849.9,1373.9,883.3z"/>
<path class="st9" d="M1351.1,1022.2c12.8-79.7,25.7-159.5,38.5-239.2"/>
<rect x="53.1" y="62" class="st1" width="581.7" height="197.2"/>
<text transform="matrix(1 0 0 1 53.0739 124.8789)"><tspan x="0" y="0" class="st10 st11">Msi Bravo 15.6</tspan><tspan x="0" y="64" class="st10 st12">   </tspan><tspan x="24.8" y="64" class="st13 st10 st12">RTX 4060 Ryzen 7 7535HS</tspan></text>
<rect x="1479.7" y="776.7" class="st1" width="426.1" height="197.2"/>
<text transform="matrix(1 0 0 1 1479.6936 848.0522)" class="st13 st10 st14">69 990 ₽ </text>
<g id="original-specs-paths">
	<g>
		<g>
			<path d="M74.7,423.3c2.6,0,5.7,0.8,7.5,2.8l-0.9,1c-1.6-1.6-4-2.5-6.6-2.5c-6,0-11.7,5.4-11.7,12.1c0,4.7,3.1,8.1,7.9,8.1
				c2.8,0,5.9-1.1,8-3l0.8,1c-2.1,1.9-5.7,3.2-8.8,3.2c-5.8,0-9.3-4-9.3-9.4C61.6,429.3,68,423.3,74.7,423.3z"/>
			<path d="M88,423.7h6.9c1.4,0,2.6,0.2,3.5,0.8c1.5,0.8,2.4,2.4,2.4,4.4c0,3.4-2,6-4.6,7.1c-1,0.4-2.1,0.6-3.2,0.6h-6.2l-1.8,9.1
				h-1.4L88,423.7z M92.9,435.3c1,0,1.9-0.2,2.8-0.5c2.2-0.9,3.7-3,3.7-6c0-2.5-1.7-3.9-4.5-3.9h-5.8l-2,10.4H92.9z"/>
			<path d="M103.6,438l2.8-14.3h1.4l-2.8,14.4c-0.1,0.6-0.2,1.1-0.2,1.6c0,3.2,2.1,5.1,5.7,5.1c4.1,0,7.3-2.5,8.2-6.8l2.8-14.3h1.4
				l-2.9,14.6c-0.9,4.8-4.6,7.8-9.4,7.8c-4.4,0-7.1-2.4-7.1-6.3C103.4,439.2,103.5,438.6,103.6,438z"/>
		</g>
		<g>
			<path d="M204,423.7h7c1.2,0,2.2,0.2,3.1,0.6c1.5,0.8,2.4,2.4,2.4,4.3c0,3.7-2.6,6.5-5.8,7.1v0.1c0,0,0.1,0.3,0.3,0.8l3.2,9.2
				h-1.4l-3.4-9.8H203l-1.9,9.8h-1.4L204,423.7z M209,434.7c3.3,0,6-2.5,6-6.1c0-2.3-1.5-3.6-4.1-3.6h-5.9l-1.9,9.8H209z"/>
			<path d="M215.6,450.4c0.4,0.4,1.2,0.7,1.8,0.7c1.6,0,2.7-1.3,3.6-2.8l1.7-2.7l-3.5-15.6h1.4l2.7,12.8c0.2,0.8,0.3,1.5,0.3,1.5h0
				l0.8-1.5l7.7-12.8h1.5l-11.9,19.5c-1.1,1.7-2.5,2.8-4.3,2.8c-0.9,0-1.9-0.3-2.6-0.9L215.6,450.4z"/>
			<path d="M233.1,444.6l11.8-12c0.7-0.7,1.4-1.4,1.5-1.4v-0.1c0,0-0.5,0.1-1.6,0.1h-8.6l0.2-1.2h12.1l-0.2,1.1l-11.8,12
				c-0.7,0.7-1.5,1.5-1.5,1.4v0.1c0,0,0.6-0.1,1.6-0.1h9.4l-0.2,1.2h-12.9L233.1,444.6z"/>
			<path d="M258.7,429.6c3.8,0,5.5,2.4,5.5,5.6c0,0.8-0.2,1.7-0.4,2.5h-12.6c-0.1,0.6-0.2,1.2-0.2,1.7c0,3,1.9,5.4,5.5,5.4
				c1.9,0,3.8-0.8,5.3-2l0.5,1.2c-1.2,1-3.5,2.1-5.8,2.1c-4,0-7-2.5-7-6.6C249.5,434.5,253.4,429.6,258.7,429.6z M262.6,436.4
				c0.1-0.3,0.1-0.8,0.1-1.3c0-2.9-1.8-4.2-4.1-4.2c-2.9,0-5.9,1.9-7.2,5.6H262.6z"/>
			<path d="M269.5,430h1.3l-0.5,2.6c-0.1,0.7-0.4,1.4-0.4,1.4h0.1c0.8-1.6,3.6-4.4,7.4-4.4c2.9,0,4.4,1.4,4.4,4
				c0,0.7-0.1,1.4-0.3,2.2l-1.9,10h-1.3l1.8-9.5c0.2-0.8,0.3-1.6,0.3-2.4c0-2-1.2-2.9-3-2.9c-3.9,0-7.4,3.5-8.1,7.5l-1.4,7.4h-1.3
				L269.5,430z"/>
			<path d="M306.1,427c0.8-1.1,1.6-2,1.6-2v-0.1c0,0-0.6,0.1-1.7,0.1h-10.6l0.3-1.3h13.9l-0.2,0.9l-14.6,21.1h-1.5L306.1,427z"/>
			<path d="M330.2,427c0.8-1.1,1.6-2,1.6-2v-0.1c0,0-0.6,0.1-1.7,0.1h-10.6l0.3-1.3h13.9l-0.2,0.9l-14.6,21.1h-1.5L330.2,427z"/>
			<path d="M333.9,442.1c0.8,1.3,2.3,2.6,4.9,2.6c3.7,0,7.1-3.1,7.1-6.8c0-2.9-2.1-4.8-5.1-4.8c-2.6,0-4.5,1.3-4.5,1.3l-1-0.3
				l3.3-10.5h10.3l-0.3,1.3h-9l-2,6.5l-0.5,1.4h0.1c0,0,1.5-0.9,3.9-0.9c3.8,0,6.4,2.5,6.4,6.1c0,4.5-4,8.1-8.6,8.1
				c-2.4,0-4.7-1.1-6-3.2L333.9,442.1z"/>
			<path d="M350.9,442.1c1,1.2,2.6,2.6,5.6,2.6c3.1,0,6.6-2.7,6.6-6.4c0-2.8-2.3-4.2-5-4.2h-1.6l-0.2-0.9l7.6-7.2
				c0.6-0.5,1.2-1,1.2-1v-0.1c0,0-0.6,0.1-1.7,0.1h-8.9l0.3-1.3h12.6l-0.2,0.9l-8.7,8.2c2.2,0,6.2,1,6.2,5.5c0,4.2-4,7.8-8.1,7.8
				c-2.6,0-5.1-1-6.6-3.1L350.9,442.1z"/>
			<path d="M368.7,442.1c0.8,1.3,2.3,2.6,4.9,2.6c3.7,0,7.1-3.1,7.1-6.8c0-2.9-2.1-4.8-5.1-4.8c-2.6,0-4.5,1.3-4.5,1.3l-1-0.3
				l3.3-10.5h10.3l-0.3,1.3h-9l-2,6.5l-0.5,1.4h0.1c0,0,1.5-0.9,3.9-0.9c3.8,0,6.4,2.5,6.4,6.1c0,4.5-4,8.1-8.6,8.1
				c-2.4,0-4.7-1.1-6-3.2L368.7,442.1z"/>
			<path d="M390.2,423.7h1.4l-2,10.3h14l2-10.3h1.4l-4.3,22h-1.4l2-10.4h-14l-2,10.4h-1.4L390.2,423.7z"/>
			<path d="M409.1,442.4c0,0,1.7,2.4,5.4,2.4c3.1,0,6-1.8,6-4.9c0-5.6-9.3-4.2-9.3-10.5c0-3.9,3.7-6.1,7.5-6.1
				c3.7,0,5.5,2.1,5.5,2.1l-0.9,1c0,0-1.5-1.8-4.6-1.8c-2.9,0-6.1,1.6-6.1,4.7c0,5.2,9.3,4,9.3,10.4c0,3.8-3.1,6.4-7.4,6.4
				c-4.3,0-6.4-2.7-6.4-2.7L409.1,442.4z"/>
		</g>
	</g>
	<g>
		<g>
			<path d="M74.8,690.3c2.6,0,5.4,0.7,7.5,2.5l-0.9,1c-1.5-1.4-4.1-2.2-6.5-2.2c-6.2,0-11.8,5.7-11.8,12.4c0,4.6,3,7.8,7.6,7.8
				c3.1,0,6.1-1.7,8.3-3.9l0.8-4h-3.9l0.2-1.3h5.3l-1.9,10h-1.4l0.4-1.9c0.1-0.5,0.2-0.9,0.2-0.9h-0.1c0,0-3.3,3.3-8,3.3
				c-5.5,0-9.1-3.8-9.1-9.1C61.6,696.6,67.9,690.3,74.8,690.3z"/>
			<path d="M89.2,690.7h6.9c1.4,0,2.6,0.2,3.5,0.8c1.5,0.8,2.4,2.4,2.4,4.4c0,3.4-2,6-4.6,7.1c-1,0.4-2.1,0.6-3.2,0.6H88l-1.8,9.1
				h-1.4L89.2,690.7z M94.1,702.3c1,0,1.9-0.2,2.8-0.5c2.2-0.9,3.7-3,3.7-6c0-2.5-1.7-3.9-4.5-3.9h-5.8l-2,10.4H94.1z"/>
			<path d="M104.8,705l2.8-14.3h1.4l-2.8,14.4c-0.1,0.6-0.2,1.1-0.2,1.6c0,3.2,2.1,5.1,5.7,5.1c4.1,0,7.3-2.5,8.2-6.8l2.8-14.3h1.4
				l-2.9,14.6c-0.9,4.8-4.6,7.8-9.4,7.8c-4.4,0-7.1-2.4-7.1-6.3C104.6,706.2,104.6,705.6,104.8,705z"/>
		</g>
		<g>
			<path d="M204,690.7h7c1.2,0,2.2,0.2,3.1,0.6c1.5,0.8,2.4,2.4,2.4,4.3c0,3.7-2.6,6.5-5.8,7.1v0.1c0,0,0.1,0.3,0.3,0.8l3.2,9.2
				h-1.4l-3.4-9.8H203l-1.9,9.8h-1.4L204,690.7z M209,701.7c3.3,0,6-2.5,6-6.1c0-2.3-1.5-3.6-4.1-3.6h-5.9l-1.9,9.8H209z"/>
			<path d="M227.7,691.9h-8.2l0.2-1.3h17.8l-0.2,1.3H229l-4,20.8h-1.4L227.7,691.9z"/>
			<path d="M243.8,700.9l-4.3-10.3h1.4l3.9,9.4h0.1c0,0,0.8-1.1,1.8-2.4l5.7-7h1.7l-8.5,10.5l4.9,11.5H249l-3.5-8.3
				c-0.5-1.2-0.9-2.4-0.9-2.4h-0.1c0,0-0.7,1-1.7,2.3l-6.7,8.3h-1.6L243.8,700.9z"/>
			<path d="M261.3,705.4l14.1-14.8h1.4l-2.8,14.5h3.3l-0.3,1.3h-3.3l-1.2,6.3h-1.4l1.2-6.3h-11.3L261.3,705.4z M272.6,705.1l2-10.3
				c0.2-0.9,0.5-2,0.5-2h-0.1c0,0-0.7,0.8-1.4,1.5l-10.3,10.8v0H272.6z"/>
			<path d="M290.9,690.3c4.4,0,5.9,2.9,5.9,7c0,5.7-2.4,15.8-9.9,15.8c-4.3,0-5.9-2.8-5.9-7C281,700.4,283.5,690.3,290.9,690.3z
				 M287,711.7c6.4,0,8.5-9.3,8.5-14.5c0-3.4-1.2-5.7-4.5-5.7c-6,0-8.5,8.6-8.5,14.6C282.4,709.5,283.7,711.7,287,711.7z"/>
			<path d="M312.1,690.3c1.5,0,2.7,0.3,4,0.9l-0.8,1.2c-0.6-0.3-1.9-0.7-3.1-0.7c-5.1,0-8.7,5.3-10,10.1h0.1c1.5-1.9,4.1-3,6.5-3
				c3.5,0,5.9,2.1,5.9,5.6c0,4.2-3.1,8.7-8,8.7c-4.2,0-6.3-3.3-6.3-7.8C300.2,700.2,304.2,690.3,312.1,690.3z M306.4,711.7
				c3.7,0,6.7-3.2,6.7-7.4c0-2.7-1.7-4.3-4.5-4.3c-2.7,0-7,2.3-7,5.7C301.6,708.6,303.2,711.7,306.4,711.7z"/>
			<path d="M328.6,690.3c4.4,0,5.9,2.9,5.9,7c0,5.7-2.4,15.8-9.9,15.8c-4.3,0-5.9-2.8-5.9-7C318.7,700.4,321.2,690.3,328.6,690.3z
				 M324.7,711.7c6.4,0,8.5-9.3,8.5-14.5c0-3.4-1.2-5.7-4.5-5.7c-6,0-8.5,8.6-8.5,14.6C320.1,709.5,321.3,711.7,324.7,711.7z"/>
		</g>
	</g>
	<g>
		<g>
			<path d="M65.9,491.5h7c1.2,0,2.2,0.2,3.1,0.6c1.5,0.8,2.4,2.4,2.4,4.3c0,3.7-2.6,6.5-5.8,7.1v0.1c0,0,0.1,0.3,0.3,0.8l3.2,9.2
				h-1.4l-3.4-9.8h-6.4l-1.9,9.8h-1.4L65.9,491.5z M70.9,502.5c3.3,0,6-2.5,6-6.1c0-2.3-1.5-3.6-4.1-3.6H67l-1.9,9.8H70.9z"/>
			<path d="M90.7,491.5h1.4l4,22h-1.4l-1.4-7.6h-9.3l-4.3,7.6h-1.5L90.7,491.5z M93.2,504.6l-1.6-8.9c-0.2-0.9-0.4-2.6-0.4-2.6h-0.1
				c0,0-0.8,1.7-1.3,2.6l-5.1,8.9H93.2z"/>
			<path d="M105.5,491.5h1.2l3.7,13.8c0.3,1.1,0.6,2.5,0.6,2.5h0.1c0,0,0.8-1.4,1.5-2.5l9.1-13.8h1.4l-2.5,22h-1.4l1.9-16.8
				c0.1-1.1,0.5-2.9,0.5-2.9h-0.1c0,0-1,1.9-1.7,2.9l-8.3,12.5h-1.4l-3.5-12.5c-0.3-1-0.6-3-0.6-3H106c0,0-0.3,1.9-0.6,3l-4.7,16.8
				h-1.4L105.5,491.5z"/>
		</g>
		<g>
			<path d="M204.9,502.2c-1.3-0.9-2.2-2-2.2-3.7c0-3,2.9-6.1,7.4-6.1c3.8,0,5.8,1.8,5.8,4.7c0,3.6-3.8,6.9-4.2,7.2
				c1.5,0.9,2.6,2.1,2.6,4c0,4-3.9,6.9-8.1,6.9c-3.5,0-6.4-1.9-6.4-5.7C199.7,505.1,204.5,502.4,204.9,502.2z M206.1,513.8
				c3.2,0,6.7-2.2,6.7-5.6c0-2.8-3.7-3.7-6.6-5.3c-0.9,0.5-5,2.8-5,6.5C201.2,512.2,203.5,513.8,206.1,513.8z M214.5,497
				c0-2.1-1.7-3.4-4.4-3.4c-3.5,0-5.9,2.2-5.9,4.7c0,2.7,3.4,3.7,6.3,5.1C211.1,503.1,214.5,500.4,214.5,497z"/>
			<path d="M229.3,491.5h1.5l-12.7,24.6h-1.5L229.3,491.5z"/>
			<path d="M229.7,513.5h5l3.5-17.8l0.3-1.1h-0.1c0,0-0.3,0.4-1.4,1.4l-3,2.5l-0.8-1l5.7-4.8h1.4l-4.1,20.8h4.9l-0.3,1.3h-11.2
				L229.7,513.5z"/>
			<path d="M256.8,492.3c1.5,0,2.7,0.3,4,0.9l-0.8,1.2c-0.6-0.3-1.9-0.7-3.1-0.7c-5.1,0-8.7,5.3-10,10.1h0.1c1.5-1.9,4.1-3,6.5-3
				c3.5,0,5.9,2.1,5.9,5.6c0,4.2-3.1,8.7-8,8.7c-4.2,0-6.3-3.3-6.3-7.8C244.9,502.3,248.9,492.3,256.8,492.3z M251.2,513.8
				c3.7,0,6.7-3.2,6.7-7.4c0-2.7-1.7-4.3-4.5-4.3c-2.7,0-7,2.3-7,5.7C246.4,510.6,247.9,513.8,251.2,513.8z"/>
			<path d="M273.8,491.5h1.5l-12.7,24.6H261L273.8,491.5z"/>
			<path d="M275.6,511.2c1,1.2,2.6,2.6,5.6,2.6c3.1,0,6.6-2.7,6.6-6.4c0-2.8-2.3-4.2-5-4.2h-1.6l-0.2-0.9l7.6-7.2
				c0.6-0.5,1.2-1,1.2-1v-0.1c0,0-0.6,0.1-1.7,0.1h-8.9l0.3-1.3h12.6l-0.2,0.9l-8.7,8.2c2.2,0,6.2,1,6.2,5.5c0,4.2-4,7.8-8.1,7.8
				c-2.6,0-5.1-1-6.6-3.1L275.6,511.2z"/>
			<path d="M292,514.7c0.1-4.5,3.9-6.9,7.8-9.3c3.6-2.2,7.1-4.2,7.1-7.8c0-2.6-1.9-4-4.3-4c-2.3,0-4.5,1.3-6,3.1l-1-0.8
				c1.5-2.1,4.2-3.6,7-3.6c3.4,0,5.7,2,5.7,5.3c0,4.3-4.1,6.6-8,9c-3.1,1.9-6.2,3.8-6.8,6.9h12l-0.3,1.3H292z"/>
			<path d="M332,492.3c2.6,0,5.4,0.7,7.5,2.5l-0.9,1c-1.5-1.4-4.1-2.2-6.5-2.2c-6.2,0-11.8,5.7-11.8,12.4c0,4.6,3,7.8,7.6,7.8
				c3.1,0,6.1-1.7,8.3-3.9l0.8-4h-3.9l0.2-1.3h5.3l-1.9,10h-1.4l0.4-1.9c0.1-0.5,0.2-0.9,0.2-0.9h-0.1c0,0-3.3,3.3-8,3.3
				c-5.5,0-9.1-3.8-9.1-9.1C318.9,498.7,325.2,492.3,332,492.3z"/>
			<path d="M346.4,492.7h7.1c0.9,0,1.7,0.1,2.3,0.4c1.6,0.7,2.6,2.1,2.6,4.1c0,2.9-1.7,5-3.9,5.9v0.1c1.5,0.5,2.7,2.1,2.7,4.4
				c0,3.1-1.7,5.5-4.1,6.6c-0.9,0.4-2,0.6-3,0.6h-8L346.4,492.7z M350,513.5c0.8,0,1.7-0.1,2.5-0.5c2-0.9,3.4-2.8,3.4-5.4
				c0-2.4-1.6-3.8-4-3.8h-6.2l-1.9,9.7H350z M351.9,502.5c2.7,0,5.2-2.1,5.2-5.3c0-2-1.3-3.2-3.5-3.2h-6l-1.7,8.6H351.9z"/>
		</g>
	</g>
	<g>
		<g>
			<path d="M62.6,576.5c0,0,1.7,2.4,5.4,2.4c3.1,0,6-1.8,6-4.9c0-5.6-9.3-4.2-9.3-10.5c0-3.9,3.7-6.1,7.5-6.1c3.7,0,5.5,2.1,5.5,2.1
				l-0.9,1c0,0-1.5-1.8-4.6-1.8c-2.9,0-6.1,1.6-6.1,4.7c0,5.2,9.3,4,9.3,10.4c0,3.8-3.1,6.4-7.4,6.4c-4.3,0-6.4-2.7-6.4-2.7
				L62.6,576.5z"/>
			<path d="M79.2,576.5c0,0,1.7,2.4,5.4,2.4c3.1,0,6-1.8,6-4.9c0-5.6-9.3-4.2-9.3-10.5c0-3.9,3.7-6.1,7.5-6.1c3.7,0,5.5,2.1,5.5,2.1
				l-0.9,1c0,0-1.5-1.8-4.6-1.8c-2.9,0-6.1,1.6-6.1,4.7c0,5.2,9.3,4,9.3,10.4c0,3.8-3.1,6.4-7.4,6.4c-4.3,0-6.4-2.7-6.4-2.7
				L79.2,576.5z"/>
			<path d="M100.2,557.8h6.6c5.8,0,9.4,3.1,9.4,8.5c0,7.4-5.4,13.5-13.1,13.5h-7.2L100.2,557.8z M102.8,578.6c6.9,0,12-5.3,12-12.2
				c0-4.7-3.1-7.3-8.1-7.3h-5.3l-3.8,19.5H102.8z"/>
		</g>
		<g>
			<path d="M199.7,580.7c0.1-4.5,3.9-6.9,7.8-9.3c3.6-2.2,7.1-4.2,7.1-7.8c0-2.6-1.9-4-4.3-4c-2.3,0-4.5,1.3-6,3.1l-1-0.8
				c1.5-2.1,4.2-3.6,7-3.6c3.4,0,5.7,2,5.7,5.3c0,4.3-4.1,6.6-8,9c-3.1,1.9-6.2,3.8-6.8,6.9h12l-0.3,1.3H199.7z"/>
			<path d="M218.6,577.1c0.8,1.3,2.3,2.6,4.9,2.6c3.7,0,7.1-3.1,7.1-6.8c0-2.9-2.1-4.8-5.1-4.8c-2.6,0-4.5,1.3-4.5,1.3l-1-0.3
				l3.3-10.5h10.3l-0.3,1.3h-9l-2,6.5l-0.5,1.4h0.1c0,0,1.5-0.9,3.9-0.9c3.8,0,6.4,2.5,6.4,6.1c0,4.5-4,8.1-8.6,8.1
				c-2.4,0-4.7-1.1-6-3.2L218.6,577.1z"/>
			<path d="M248,558.3c1.5,0,2.7,0.3,4,0.9l-0.8,1.2c-0.6-0.3-1.9-0.7-3.1-0.7c-5.1,0-8.7,5.3-10,10.1h0.1c1.5-1.9,4.1-3,6.5-3
				c3.5,0,5.9,2.1,5.9,5.6c0,4.2-3.1,8.7-8,8.7c-4.2,0-6.3-3.3-6.3-7.8C236.1,568.3,240.1,558.3,248,558.3z M242.3,579.8
				c3.7,0,6.7-3.2,6.7-7.4c0-2.7-1.7-4.3-4.5-4.3c-2.7,0-7,2.3-7,5.7C237.5,576.6,239.1,579.8,242.3,579.8z"/>
			<path d="M264.9,557.4h1.5L253.7,582h-1.5L264.9,557.4z"/>
			<path d="M275,577.1c0.8,1.3,2.3,2.6,4.9,2.6c3.7,0,7.1-3.1,7.1-6.8c0-2.9-2.1-4.8-5.1-4.8c-2.6,0-4.5,1.3-4.5,1.3l-1-0.3
				l3.3-10.5h10.3l-0.3,1.3h-9l-2,6.5l-0.5,1.4h0.1c0,0,1.5-0.9,3.9-0.9c3.8,0,6.4,2.5,6.4,6.1c0,4.5-4,8.1-8.6,8.1
				c-2.4,0-4.7-1.1-6-3.2L275,577.1z"/>
			<path d="M290.9,579.5h5l3.5-17.8l0.3-1.1h-0.1c0,0-0.3,0.4-1.4,1.4l-3,2.5l-0.8-1l5.7-4.8h1.4l-4.1,20.8h4.9l-0.3,1.3h-11.2
				L290.9,579.5z"/>
			<path d="M304.9,580.7c0.1-4.5,3.9-6.9,7.8-9.3c3.6-2.2,7.1-4.2,7.1-7.8c0-2.6-1.9-4-4.3-4c-2.3,0-4.5,1.3-6,3.1l-1-0.8
				c1.5-2.1,4.2-3.6,7-3.6c3.4,0,5.7,2,5.7,5.3c0,4.3-4.1,6.6-8,9c-3.1,1.9-6.2,3.8-6.8,6.9h12l-0.3,1.3H304.9z"/>
			<path d="M334.4,557.4h1.5L323.1,582h-1.5L334.4,557.4z"/>
			<path d="M334.7,579.5h5l3.5-17.8l0.3-1.1h-0.1c0,0-0.3,0.4-1.4,1.4l-3,2.5l-0.8-1l5.7-4.8h1.4l-4.1,20.8h4.9l-0.3,1.3h-11.2
				L334.7,579.5z"/>
			<path d="M360.1,558.3c4.4,0,5.9,2.9,5.9,7c0,5.7-2.4,15.8-9.9,15.8c-4.3,0-5.9-2.8-5.9-7C350.2,568.5,352.7,558.3,360.1,558.3z
				 M356.2,579.8c6.4,0,8.5-9.3,8.5-14.5c0-3.4-1.2-5.7-4.5-5.7c-6,0-8.5,8.6-8.5,14.6C351.6,577.5,352.8,579.8,356.2,579.8z"/>
			<path d="M367.8,580.7c0.1-4.5,3.9-6.9,7.8-9.3c3.6-2.2,7.1-4.2,7.1-7.8c0-2.6-1.9-4-4.3-4c-2.3,0-4.5,1.3-6,3.1l-1-0.8
				c1.5-2.1,4.2-3.6,7-3.6c3.4,0,5.7,2,5.7,5.3c0,4.3-4.1,6.6-8,9c-3.1,1.9-6.2,3.8-6.8,6.9h12l-0.3,1.3H367.8z"/>
			<path d="M385,573.5l14.1-14.8h1.4l-2.8,14.5h3.3l-0.3,1.3h-3.3l-1.2,6.3h-1.4l1.2-6.3h-11.3L385,573.5z M396.4,573.2l2-10.3
				c0.2-0.9,0.5-2,0.5-2h-0.1c0,0-0.7,0.8-1.4,1.5l-10.3,10.8v0H396.4z"/>
			<path d="M425.7,558.3c2.6,0,5.4,0.7,7.5,2.5l-0.9,1c-1.5-1.4-4.1-2.2-6.5-2.2c-6.2,0-11.8,5.7-11.8,12.4c0,4.6,3,7.8,7.6,7.8
				c3.1,0,6.1-1.7,8.3-3.9l0.8-4h-3.9l0.2-1.3h5.3l-1.9,10H429l0.4-1.9c0.1-0.5,0.2-0.9,0.2-0.9h-0.1c0,0-3.3,3.3-8,3.3
				c-5.5,0-9.1-3.8-9.1-9.1C412.5,564.6,418.8,558.3,425.7,558.3z"/>
			<path d="M440.1,558.7h7.1c0.9,0,1.7,0.1,2.3,0.4c1.6,0.7,2.6,2.1,2.6,4.1c0,2.9-1.7,5-3.9,5.9v0.1c1.5,0.5,2.7,2.1,2.7,4.4
				c0,3.1-1.7,5.5-4.1,6.6c-0.9,0.4-2,0.6-3,0.6h-8L440.1,558.7z M443.6,579.5c0.8,0,1.7-0.1,2.5-0.5c2-0.9,3.4-2.8,3.4-5.4
				c0-2.4-1.6-3.8-4-3.8h-6.2l-1.9,9.7H443.6z M445.5,568.5c2.7,0,5.2-2.1,5.2-5.3c0-2-1.3-3.2-3.5-3.2h-6l-1.7,8.6H445.5z"/>
		</g>
	</g>
	<g>
		<g>
			<path d="M65.9,621.4h6.6c5.8,0,9.4,3.1,9.4,8.5c0,7.4-5.4,13.5-13.1,13.5h-7.2L65.9,621.4z M68.5,642.1c6.9,0,12-5.3,12-12.2
				c0-4.7-3.1-7.3-8.1-7.3H67l-3.8,19.5H68.5z"/>
			<path d="M87.1,627.7h1.3l-3.1,15.7h-1.3L87.1,627.7z M88.2,621.4h1.6l-0.5,2.3h-1.6L88.2,621.4z"/>
			<path d="M90.7,640.5c1,1.2,2.7,1.9,4.5,1.9c2.1,0,4.3-1,4.3-3.1c0-3.8-7.3-2.8-7.3-7.6c0-2.9,2.8-4.4,5.7-4.4
				c1.8,0,3.5,0.6,4.5,1.8l-0.9,0.9c-0.9-1-2.2-1.4-3.6-1.4c-2,0-4.3,0.9-4.3,3.1c0,3.9,7.3,2.8,7.3,7.5c0,2.7-2.5,4.6-5.8,4.6
				c-1.9,0-4-0.7-5.3-2.3L90.7,640.5z"/>
			<path d="M104.5,649.7h-1.3l4.3-22h1.3l-0.3,1.7c-0.1,0.7-0.4,1.4-0.4,1.4h0.1c1.1-1.8,3.1-3.5,6-3.5c3.7,0,5.8,2.4,5.8,6.2
				c0,6.1-4.2,10.3-8.5,10.3c-2.5,0-4.5-1.2-5.1-3.6h-0.1c0,0,0,0.7-0.2,1.5L104.5,649.7z M111.3,642.5c3.4,0,7.2-3.3,7.2-8.9
				c0-3.1-1.6-5-4.4-5c-4.4,0-7.1,4.8-7.1,8.9C107,640.2,108.4,642.5,111.3,642.5z"/>
			<path d="M123.2,640.1l3.6-18.7h1.3l-3.6,18.5c-0.1,0.3-0.1,0.7-0.1,0.9c0,1.4,0.9,1.5,1.5,1.5c0.1,0,0.2,0,0.4,0l-0.3,1.2
				c-0.1,0-0.3,0.1-0.5,0.1c-0.8,0-2.5-0.3-2.5-2.5C123.1,640.7,123.1,640.4,123.2,640.1z"/>
			<path d="M139.8,633.8h1.2c0.2-1,0.2-1.5,0.2-2c0-1.9-0.8-3.2-3.5-3.2c-1.6,0-3.5,0.6-4.8,1.5l-0.6-1.2c1.2-0.9,3.3-1.6,5.3-1.6
				c3.2,0,4.9,1.4,4.9,4.3c0,0.5-0.1,1.1-0.2,1.8l-1.9,10h-1.3l0.4-2c0.2-0.8,0.4-1.4,0.4-1.4h-0.1c-0.8,1.5-2.9,3.9-6.1,3.9
				c-2.6,0-4.7-1.4-4.7-3.9C129.2,634.8,135.4,633.8,139.8,633.8z M134,642.6c3.3,0,6-3.7,6.7-6.8l0.2-0.7h-1c-3,0-9.3,0.3-9.3,4.7
				C130.5,641.2,131.6,642.6,134,642.6z"/>
			<path d="M142.9,648.1c0.4,0.4,1.2,0.7,1.8,0.7c1.6,0,2.7-1.3,3.6-2.8l1.7-2.7l-3.5-15.6h1.4l2.7,12.8c0.2,0.8,0.3,1.5,0.3,1.5h0
				l0.8-1.5l7.7-12.8h1.5l-11.9,19.5c-1.1,1.7-2.5,2.8-4.3,2.8c-0.9,0-1.9-0.3-2.6-0.9L142.9,648.1z"/>
		</g>
		<g>
			<path d="M199.9,642.5h5l3.5-17.8l0.3-1.1h-0.1c0,0-0.3,0.4-1.4,1.4l-3,2.5l-0.8-1l5.7-4.8h1.4l-4.1,20.8h4.9l-0.3,1.3h-11.2
				L199.9,642.5z"/>
			<path d="M215.4,640.2c0.8,1.3,2.3,2.6,4.9,2.6c3.7,0,7.1-3.1,7.1-6.8c0-2.9-2.1-4.8-5.1-4.8c-2.6,0-4.5,1.3-4.5,1.3l-1-0.3
				l3.3-10.5h10.3l-0.3,1.3h-9l-2,6.5l-0.5,1.4h0.1c0,0,1.5-0.9,3.9-0.9c3.8,0,6.4,2.5,6.4,6.1c0,4.5-4,8.1-8.6,8.1
				c-2.4,0-4.7-1.1-6-3.2L215.4,640.2z"/>
			<path d="M232.1,641.8h1.9l-0.4,2h-1.9L232.1,641.8z"/>
			<path d="M251.1,621.4c1.5,0,2.7,0.3,4,0.9l-0.8,1.2c-0.6-0.3-1.9-0.7-3.1-0.7c-5.1,0-8.7,5.3-10,10.1h0.1c1.5-1.9,4.1-3,6.5-3
				c3.5,0,5.9,2.1,5.9,5.6c0,4.2-3.1,8.7-8,8.7c-4.2,0-6.3-3.3-6.3-7.8C239.2,631.3,243.2,621.4,251.1,621.4z M245.4,642.8
				c3.7,0,6.7-3.2,6.7-7.4c0-2.7-1.7-4.3-4.5-4.3c-2.7,0-7,2.3-7,5.7C240.6,639.7,242.2,642.8,245.4,642.8z"/>
			<path d="M269.4,621.8h11.1l-0.3,1.3h-9.8l-1.8,9.2h8.4l-0.3,1.3h-8.4l-2,10.3h-1.4L269.4,621.8z"/>
			<path d="M280.5,638l1.9-10h1.3l-1.8,9.4c-0.2,0.9-0.3,1.7-0.3,2.5c0,1.7,0.7,2.9,3.1,2.9c3.9,0,7.2-3.8,7.9-7.5l1.4-7.3h1.3
				l-3.1,15.7H291l0.5-2.6c0.1-0.7,0.4-1.4,0.4-1.4h-0.1c-0.8,1.6-3.4,4.4-7.3,4.4c-2.3,0-4.3-1-4.3-4
				C280.3,639.5,280.4,638.8,280.5,638z"/>
			<path d="M298.5,640.4l3.6-18.7h1.3l-3.6,18.5c-0.1,0.3-0.1,0.7-0.1,0.9c0,1.4,0.9,1.5,1.5,1.5c0.1,0,0.2,0,0.4,0l-0.3,1.2
				c-0.1,0-0.3,0.1-0.5,0.1c-0.8,0-2.5-0.3-2.5-2.5C298.4,641.1,298.4,640.8,298.5,640.4z"/>
			<path d="M305.8,640.4l3.6-18.7h1.3l-3.6,18.5c-0.1,0.3-0.1,0.7-0.1,0.9c0,1.4,0.9,1.5,1.5,1.5c0.1,0,0.2,0,0.4,0l-0.3,1.2
				c-0.1,0-0.3,0.1-0.5,0.1c-0.8,0-2.5-0.3-2.5-2.5C305.7,641.1,305.7,640.8,305.8,640.4z"/>
			<path d="M313.7,634.3h8.7l-0.2,1.3h-8.7L313.7,634.3z"/>
			<path d="M330.6,621.8h1.4l-2,10.3h14l2-10.3h1.4l-4.3,22h-1.4l2-10.4h-14l-2,10.4h-1.4L330.6,621.8z"/>
			<path d="M354,621.8h6.6c5.8,0,9.4,3.1,9.4,8.5c0,7.4-5.4,13.5-13.1,13.5h-7.2L354,621.8z M356.6,642.5c6.9,0,12-5.3,12-12.2
				c0-4.7-3.1-7.3-8.1-7.3h-5.3l-3.8,19.5H356.6z"/>
			<path d="M379.5,642.5h5l3.5-17.8l0.3-1.1h-0.1c0,0-0.3,0.4-1.4,1.4l-3,2.5l-0.8-1l5.7-4.8h1.4l-4.1,20.8h4.9l-0.3,1.3h-11.2
				L379.5,642.5z"/>
			<path d="M393.4,636.5l14.1-14.8h1.4l-2.8,14.5h3.3l-0.3,1.3h-3.3l-1.2,6.3h-1.4l1.2-6.3h-11.3L393.4,636.5z M404.7,636.2l2-10.3
				c0.2-0.9,0.5-2,0.5-2h-0.1c0,0-0.7,0.8-1.4,1.5l-10.3,10.8v0H404.7z"/>
			<path d="M411.9,636.5l14.1-14.8h1.4l-2.8,14.5h3.3l-0.3,1.3h-3.3l-1.2,6.3h-1.4l1.2-6.3h-11.3L411.9,636.5z M423.3,636.2l2-10.3
				c0.2-0.9,0.5-2,0.5-2h-0.1c0,0-0.7,0.8-1.4,1.5L414,636.2v0H423.3z"/>
			<path d="M435.5,621.8h11.1l-0.3,1.3h-9.8l-4.1,20.8h-1.4L435.5,621.8z"/>
			<path d="M445.9,628.1h1.3l-2.8,14.5h9.8l2.8-14.5h1.3l-2.8,14.5h2.2l-1,5h-1.3l0.8-3.8h-13.3L445.9,628.1z"/>
		</g>
	</g>
	<g>
		<path class="st15" d="M56.1,468.2c132.5-0.5,281.1-0.5,413.6,0C337.2,468.8,188.6,468.8,56.1,468.2L56.1,468.2z"/>
	</g>
	<g>
		<path class="st15" d="M56.1,534.2c132.5-0.5,281.1-0.5,413.6,0C337.2,534.7,188.6,534.7,56.1,534.2L56.1,534.2z"/>
	</g>
	<g>
		<path class="st15" d="M56.1,600.1c132.5-0.5,281.1-0.5,413.6,0C337.2,600.6,188.6,600.6,56.1,600.1L56.1,600.1z"/>
	</g>
	<g>
		<path class="st15" d="M56.1,666c132.5-0.5,281.1-0.5,413.6,0C337.2,666.6,188.6,666.6,56.1,666L56.1,666z"/>
	</g>
	<path class="st16" d="M174.2,423.3c0,8,0,16,0,24"/>
	<path class="st16" d="M174.2,489.2c0,8,0,16,0,24"/>
	<path class="st16" d="M174.2,555.1c0,8,0,16,0,24"/>
	<path class="st16" d="M174.2,621.1c0,8,0,16,0,24"/>
	<path class="st16" d="M174.2,687c0,8,0,16,0,24"/>
</g>
<text id="user-specs" visibility="hidden" transform="matrix(1 0 0 1 56 430)" class="st2 st12" fill="#161615"><tspan x="0" y="0">PLACEHOLDER_SPEC_1_LEFT</tspan><tspan x="185" y="0">PLACEHOLDER_SPEC_1_RIGHT</tspan><tspan x="0" y="66">PLACEHOLDER_SPEC_2_LEFT</tspan><tspan x="185" y="66">PLACEHOLDER_SPEC_2_RIGHT</tspan><tspan x="0" y="132">PLACEHOLDER_SPEC_3_LEFT</tspan><tspan x="185" y="132">PLACEHOLDER_SPEC_3_RIGHT</tspan><tspan x="0" y="198">PLACEHOLDER_SPEC_4_LEFT</tspan><tspan x="185" y="198">PLACEHOLDER_SPEC_4_RIGHT</tspan><tspan x="0" y="264">PLACEHOLDER_SPEC_5_LEFT</tspan><tspan x="185" y="264">PLACEHOLDER_SPEC_5_RIGHT</tspan></text>
<g transform="matrix(8.528169e-02 0 0 8.528169e-02 1415.5454 895.2937)">
	<circle cx="256" cy="256" r="215" style="fill:none;stroke:#FFB823;stroke-width:28;"/>
	<path d="M140,264l76,76l156-156" style="fill:none;stroke:#FFB823;stroke-width:36;stroke-linecap:round;stroke-linejoin:round;"/>
</g>
<g transform="matrix(8.528169e-02 0 0 8.528169e-02 1415.5454 946.9109)">
	<rect x="64" y="160" width="224" height="118" style="fill:none;stroke:#FFB823;stroke-width:24;"/>
	<path d="M288,184h72l56,58v36h-128V184z" style="fill:none;stroke:#FFB823;stroke-width:24;stroke-linejoin:round;"/>
	<circle cx="150" cy="312" r="32" style="fill:none;stroke:#FFB823;stroke-width:20;"/>
	<circle cx="344" cy="312" r="32" style="fill:none;stroke:#FFB823;stroke-width:20;"/>
</g>
</svg>
